<?xml version="1.0" encoding="utf-8"?>
<!-- Generator: Adobe Illustrator 25.3.1, SVG Export Plug-In . SVG Version: 6.00 Build 0)  -->
<svg version="1.1" id="Layer_1" xmlns="http://www.w3.org/2000/svg" xmlns:xlink="http://www.w3.org/1999/xlink" x="0px" y="0px"
	 viewBox="0 0 31.9 23.7" style="enable-background:new 0 0 31.9 23.7;" xml:space="preserve">
<style type="text/css">
	.st0{fill:url(#SVGID_1_);}
	.st1{fill:#204E9F;}
	.st2{fill:url(#SVGID_2_);}
	.st3{fill:#24366F;}
	.st4{fill:#243A77;}
	.st5{fill:#1A4A9B;}
	.st6{fill:#224188;}
	.st7{fill:#204593;}
	.st8{fill:#243D7E;}
	.st9{fill:#FFFFFF;}
	.st10{fill:#164B9C;}
	.st11{fill:#3A62AE;}
	.st12{fill:#1F4D9F;}
	.st13{fill:#3760AD;}
	.st14{fill:#345CAA;}
	.st15{fill:#2954A3;}
	.st16{fill:#2E57A6;}
	.st17{fill:url(#SVGID_3_);}
	.st18{fill:url(#SVGID_4_);}
	.st19{fill:url(#SVGID_5_);}
	.st20{fill:#2553A2;}
</style>
<g>
	
		<linearGradient id="SVGID_1_" gradientUnits="userSpaceOnUse" x1="12.0017" y1="1.7588" x2="28.4191" y2="19.8663" gradientTransform="matrix(1 0 0 -1 0 27.0564)">
		<stop  offset="0" style="stop-color:#1499D2"/>
		<stop  offset="1" style="stop-color:#5FCAE3"/>
	</linearGradient>
	<path class="st0" d="M14.2,22.8c0.5-0.1,1-0.3,1.4-0.4l0-0.1c-0.5-0.2-0.9-0.4-1.4-0.6L14.2,22.8z"/>
	<path class="st1" d="M17.5,2.9L17.5,2c-0.4-0.2-0.9-0.4-1.3-0.6l-0.1,1.4C16.6,2.9,17.1,2.9,17.5,2.9z"/>
	
		<linearGradient id="SVGID_2_" gradientUnits="userSpaceOnUse" x1="-222.3065" y1="81.5789" x2="-205.8891" y2="99.6864" gradientTransform="matrix(-1 0 0 1 -202.4647 -83.1491)">
		<stop  offset="0.1514" style="stop-color:#5FCAE3"/>
		<stop  offset="0.842" style="stop-color:#1499D2"/>
	</linearGradient>
	<path class="st2" d="M17.7,0.9c-0.5,0.1-1,0.3-1.4,0.4l0,0.1c0.5,0.2,0.9,0.4,1.4,0.6L17.7,0.9z"/>
	<path class="st3" d="M4.8,4.1c0,0.5,0,1.1,0,1.6l0.9,0.6C6.1,6.1,6.6,5.8,7,5.5L4.8,4.1z"/>
	<path class="st4" d="M5.1,1C5,1.6,4.9,2.2,4.9,2.7l2.7,2.4C8,4.9,8.4,4.7,8.9,4.5L5.1,1z"/>
	<path class="st5" d="M15.7,1.4L15.7,1.4c-0.5-0.2-1-0.4-1.4-0.5l0,0l0.2,2c0.5,0,0.9-0.1,1.4-0.1L15.7,1.4z"/>
	<path class="st6" d="M11,0.3c-0.5-0.1-1.1-0.1-1.6-0.2l1.8,3.5c0.4-0.1,0.9-0.3,1.4-0.4L11,0.3z"/>
	<path class="st7" d="M13.5,0.7L13.5,0.7c-0.2-0.1-0.4-0.1-0.5-0.1c-0.3-0.1-0.7-0.1-1-0.2l0.8,2.8C13.2,3.1,13.7,3,14.1,3L13.5,0.7
		z"/>
	<path class="st8" d="M7.9,0C7.3,0,6.7,0,6.1,0l3.2,4.3c0.4-0.2,0.9-0.4,1.4-0.5L7.9,0z"/>
	<path class="st9" d="M19.1,3.2L17.7,3C18.2,3,18.7,3.1,19.1,3.2z"/>
	<path class="st10" d="M14.4,20.8l-0.1,0.9c0.4,0.2,0.9,0.4,1.4,0.6l0.1-1.4C15.2,20.9,14.8,20.8,14.4,20.8z"/>
	<path class="st11" d="M27,17.9l-0.9-0.5c-0.4,0.3-0.8,0.6-1.3,0.8l2.2,1.4l0,0C27,19,27,18.4,27,17.9L27,17.9z"/>
	<path class="st12" d="M17.4,20.8c-0.3,0-0.6,0-0.8,0.1c-0.2,0-0.4,0-0.6,0l0.1,1.5c0.5,0.2,1,0.3,1.4,0.4L17.4,20.8z"/>
	<path class="st13" d="M24.3,18.5c-0.4,0.2-0.9,0.5-1.3,0.7l3.9,3.5c0.1-0.6,0.1-1.2,0.2-1.7L24.3,18.5z"/>
	<path class="st7" d="M13,20.6c-0.1,0-0.2,0-0.3-0.1l-0.1,0.3c0.4,0.2,0.8,0.5,1.3,0.7l0.2-0.7C13.6,20.7,13.3,20.6,13,20.6z"/>
	<path class="st14" d="M22.5,19.4c-0.5,0.2-0.9,0.4-1.4,0.6l2.8,3.8c0.6,0,1.2,0,1.7,0L22.5,19.4z"/>
	<path class="st15" d="M19.1,20.5c-0.5,0.1-0.9,0.2-1.4,0.2l0.6,2.3c0.5,0.1,1,0.2,1.5,0.3L19.1,20.5z"/>
	<path class="st16" d="M20.7,20.1c-0.4,0.1-0.9,0.3-1.4,0.4l1.5,3c0.5,0.1,1.1,0.1,1.6,0.2L20.7,20.1z"/>
	<circle class="st9" cx="15.9" cy="11.9" r="3.9"/>
	
		<linearGradient id="SVGID_3_" gradientUnits="userSpaceOnUse" x1="5.0016" y1="10.0374" x2="20.4301" y2="27.0542" gradientTransform="matrix(1 0 0 -1 0 27.0564)">
		<stop  offset="0" style="stop-color:#1499D2"/>
		<stop  offset="1" style="stop-color:#5FCAE3"/>
	</linearGradient>
	<path class="st17" d="M19.9,0.4c-0.5,0.1-1.1,0.2-1.5,0.3L18,2.2l1.3,0.7L19.9,0.4z"/>
	
		<linearGradient id="SVGID_4_" gradientUnits="userSpaceOnUse" x1="10.8897" y1="2.767" x2="27.3071" y2="20.8745" gradientTransform="matrix(1 0 0 -1 0 27.0564)">
		<stop  offset="0" style="stop-color:#1499D2"/>
		<stop  offset="1" style="stop-color:#5FCAE3"/>
	</linearGradient>
	<path class="st18" d="M11.9,23.3c0.5-0.1,1.1-0.2,1.5-0.3l0.4-1.5c-0.4-0.2-0.8-0.4-1.3-0.7L11.9,23.3z"/>
	<linearGradient id="SVGID_5_" gradientUnits="userSpaceOnUse" x1="5.9417" y1="22.6764" x2="25.4115" y2="1.5323">
		<stop  offset="5.707354e-02" style="stop-color:#1499D2"/>
		<stop  offset="0.9472" style="stop-color:#5FCAE3"/>
	</linearGradient>
	<path class="st19" d="M31.3,11.2h-5.6h-2.1l2-0.4l4.6-0.9c-0.4-0.4-0.8-0.8-1.2-1.2l-4,0.7l-1.7,0.3l1.5-0.6l3.3-1.3
		c-0.4-0.3-0.8-0.6-1.1-0.9l-0.1-0.1l0,0l0,0L24.1,8l-1.3,0.5l1.2-0.7l2.2-1.4L27,5.8c0-0.5,0-1.1,0-1.6l-2.2,1.4l-1.7,1.1L22,7.3
		L23,6.4l1.3-1.2L27,2.8c0-0.6-0.1-1.2-0.2-1.7L23,4.5l-1,0.9l-0.9,0.8l0.8-1l0.7-0.9L25.8,0c-0.6,0-1.2,0-1.7,0l-2.9,3.8l-0.4,0.5
		L20,5.4l0.6-1.3l0.2-0.5l1.8-3.6c-0.5,0-1.1,0.1-1.6,0.2l-1.5,3l0,0l-0.7,1.5l0.4-1.6C18.7,3.1,18.2,3,17.7,3l-0.4,1.4l0.1-1.4
		c-0.5,0-0.9-0.1-1.4-0.1l-0.1,1.4l-0.1-1.4c-0.5,0-0.9,0-1.4,0.1l0.1,1.4L14.1,3c-0.5,0.1-0.9,0.1-1.4,0.2l0.4,1.6l-0.7-1.5
		c-0.5,0.1-0.9,0.2-1.4,0.4L12,5.4l-1.2-1.6c-0.5,0.2-0.9,0.3-1.4,0.5l1.5,1.9L8.9,4.5C8.4,4.7,8,4.9,7.6,5.2l2.3,2.1L7,5.5
		C6.6,5.8,6.1,6.1,5.7,6.3l3.4,2.1L5,6.8c-0.1,0-0.9,0.7-1.3,1l0,0L5,8.4l3.6,1.4L5.1,9.1L2.8,8.7C2.4,9.1,2,9.5,1.6,9.9l3.7,0.7
		l2.9,0.5H5.5H0.6c-0.2,0.2-0.4,0.4-0.6,0.7c0.2,0.2,0.4,0.5,0.6,0.7H6h2.4L6.1,13l-4.4,0.8c0.4,0.4,0.8,0.8,1.2,1.2l3.8-0.7
		l1.9-0.4l-1.8,0.7l-3,1.2c0.4,0.3,0.7,0.6,1.1,0.9L5,16.8l2.5-1l1.6-0.6l-1.4,0.9l-2,1.2l-0.8,0.5c0,0.5,0,1.1,0,1.6l2.1-1.3l1.6-1
		l1.4-0.9l-1.2,1.1l-1.1,1.1L4.9,21c0,0.6,0.1,1.2,0.2,1.7l3.8-3.5l0.8-0.7l1.1-1l-0.9,1.2l-0.5,0.7l-3.2,4.3c0.6,0,1.2,0,1.7,0
		l2.8-3.7l0.2-0.3l1-1.3l-0.7,1.5l-0.1,0.3l-1.8,3.5c0.5,0,1.1-0.1,1.6-0.2l1.4-2.8l0.1-0.2l0.7-1.5l-0.4,1.6c0.1,0,0.2,0,0.3,0.1
		c0.2,0.1,0.6,0.1,1.1,0.2l0,0l0.4-1.4l-0.1,1.4l0,0c0.4,0,0.9,0.1,1.4,0.1l0,0l0.1-1.3l0.1,1.3l0,0c0.2,0,0.4,0,0.6,0
		c0.3,0,0.6,0,0.8-0.1l0,0l-0.1-1.4l0.4,1.4l0,0c0.5-0.1,0.9-0.1,1.4-0.2l0,0L18.7,19l0.7,1.4l0,0c0.5-0.1,0.9-0.2,1.4-0.4l0,0
		l-0.8-1.7l1.2,1.6l0,0c0.5-0.2,1-0.4,1.4-0.6l0,0l-1.4-1.9l1.9,1.7l0,0c0.5-0.2,0.9-0.4,1.3-0.7l0,0L22,16.4l2.8,1.7l0,0
		c0.5-0.3,0.9-0.6,1.3-0.8l0,0L23,15.4l0.1,0l3.8,1.4c0,0,0.6-0.6,0.7-0.6c0.1-0.1,0.2-0.2,0.3-0.3c0.1-0.1,0.2-0.1,0.2-0.2
		l-1.3-0.5L25,14.6l-1.7-0.7l2.3,0.4l1,0.2L29,15l0,0c0,0,0.1-0.1,0.1-0.1c0.1-0.1,0.2-0.2,0.2-0.2c0.2-0.2,0.3-0.3,0.5-0.5
		c0.1-0.1,0.2-0.3,0.4-0.4L28,13.4l-1.7-0.3l-2.8-0.5h2.6h4h1.2h0c0.2-0.2,0.4-0.5,0.6-0.7C31.7,11.6,31.5,11.4,31.3,11.2z
		 M15.9,15.8c-2.2,0-3.9-1.7-3.9-3.9c0-2.2,1.7-3.9,3.9-3.9c2.2,0,3.9,1.7,3.9,3.9C19.8,14,18.1,15.8,15.9,15.8z"/>
	<path class="st20" d="M18.8,3.1c0.1,0,0.2,0,0.3,0.1l0.1-0.3c-0.4-0.3-0.8-0.5-1.2-0.7L17.7,3C18.2,3,18.6,3.1,18.8,3.1z"/>
</g>
</svg>
