<?xml version="1.0" encoding="utf-8"?>
<!-- Generator: Adobe Illustrator 25.3.1, SVG Export Plug-In . SVG Version: 6.00 Build 0)  -->
<svg version="1.1" id="Layer_1" xmlns="http://www.w3.org/2000/svg" xmlns:xlink="http://www.w3.org/1999/xlink" x="0px" y="0px"
	 viewBox="0 0 16 16" style="enable-background:new 0 0 16 16;" xml:space="preserve">
<style type="text/css">
	.st0{fill:url(#SVGID_1_);}
	.st1{fill:#204E9F;}
	.st2{fill:url(#SVGID_2_);}
	.st3{fill:#24366F;}
	.st4{fill:#243A77;}
	.st5{fill:#1A4A9B;}
	.st6{fill:#224188;}
	.st7{fill:#204593;}
	.st8{fill:#243D7E;}
	.st9{fill:#FFFFFF;}
	.st10{fill:#164B9C;}
	.st11{fill:#3A62AE;}
	.st12{fill:#1F4D9F;}
	.st13{fill:#3760AD;}
	.st14{fill:#345CAA;}
	.st15{fill:#2954A3;}
	.st16{fill:#2E57A6;}
	.st17{fill:url(#SVGID_3_);}
	.st18{fill:url(#SVGID_4_);}
	.st19{fill:url(#SVGID_5_);}
	.st20{fill:#2553A2;}
</style>
<g>
	
		<linearGradient id="SVGID_1_" gradientUnits="userSpaceOnUse" x1="6.0256" y1="4.6062" x2="14.2523" y2="13.6798" gradientTransform="matrix(1 0 0 -1 0 19.3408)">
		<stop  offset="0" style="stop-color:#1499D2"/>
		<stop  offset="1" style="stop-color:#5FCAE3"/>
	</linearGradient>
	<path class="st0" d="M7.1,13.5c0.3-0.1,0.5-0.1,0.7-0.2l0-0.1c-0.2-0.1-0.5-0.2-0.7-0.3L7.1,13.5z"/>
	<path class="st1" d="M8.8,3.5l0-0.4C8.6,3,8.4,2.9,8.1,2.8L8.1,3.5C8.3,3.5,8.6,3.5,8.8,3.5z"/>
	
		<linearGradient id="SVGID_2_" gradientUnits="userSpaceOnUse" x1="-228.3026" y1="84.4204" x2="-220.0759" y2="93.494" gradientTransform="matrix(-1 0 0 1 -218.3484 -83.1491)">
		<stop  offset="0.1514" style="stop-color:#5FCAE3"/>
		<stop  offset="0.842" style="stop-color:#1499D2"/>
	</linearGradient>
	<path class="st2" d="M8.9,2.5C8.6,2.6,8.4,2.6,8.1,2.7l0,0.1C8.4,2.9,8.6,3,8.8,3.1L8.9,2.5z"/>
	<path class="st3" d="M2.4,4.1c0,0.3,0,0.6,0,0.8l0.4,0.3C3.1,5.1,3.3,5,3.5,4.8L2.4,4.1z"/>
	<path class="st4" d="M2.6,2.6c0,0.3-0.1,0.6-0.1,0.9l1.3,1.2C4,4.5,4.2,4.4,4.5,4.3L2.6,2.6z"/>
	<path class="st5" d="M7.9,2.7L7.9,2.7C7.6,2.6,7.4,2.6,7.1,2.5l0,0l0.1,1c0.2,0,0.5,0,0.7,0L7.9,2.7z"/>
	<path class="st6" d="M5.5,2.2C5.2,2.2,5,2.1,4.7,2.1l0.9,1.8C5.8,3.8,6,3.7,6.3,3.7L5.5,2.2z"/>
	<path class="st7" d="M6.8,2.4L6.8,2.4c-0.1,0-0.2,0-0.3-0.1C6.3,2.3,6.2,2.3,6,2.2l0.4,1.4c0.2,0,0.5-0.1,0.7-0.1L6.8,2.4z"/>
	<path class="st8" d="M4,2.1c-0.3,0-0.6,0-0.9,0l1.6,2.1C4.9,4.1,5.2,4,5.4,3.9L4,2.1z"/>
	<path class="st9" d="M9.6,3.7L8.9,3.5C9.1,3.6,9.4,3.6,9.6,3.7z"/>
	<path class="st10" d="M7.2,12.5l0,0.4c0.2,0.1,0.5,0.2,0.7,0.3l0.1-0.7C7.7,12.5,7.4,12.5,7.2,12.5z"/>
	<path class="st11" d="M13.5,11l-0.4-0.3c-0.2,0.1-0.4,0.3-0.6,0.4l1.1,0.7l0,0C13.6,11.6,13.6,11.3,13.5,11L13.5,11z"/>
	<path class="st12" d="M8.7,12.5c-0.1,0-0.3,0-0.4,0c-0.1,0-0.2,0-0.3,0l0.1,0.8c0.2,0.1,0.5,0.2,0.7,0.2L8.7,12.5z"/>
	<path class="st13" d="M12.2,11.3c-0.2,0.1-0.4,0.2-0.7,0.3l1.9,1.8c0-0.3,0.1-0.6,0.1-0.9L12.2,11.3z"/>
	<path class="st7" d="M6.5,12.4c-0.1,0-0.1,0-0.2,0l0,0.1c0.2,0.1,0.4,0.2,0.6,0.3l0.1-0.4C6.8,12.4,6.7,12.4,6.5,12.4z"/>
	<path class="st14" d="M11.3,11.8c-0.2,0.1-0.5,0.2-0.7,0.3l1.4,1.9c0.3,0,0.6,0,0.9,0L11.3,11.8z"/>
	<path class="st15" d="M9.6,12.3c-0.2,0-0.5,0.1-0.7,0.1l0.3,1.1c0.3,0.1,0.5,0.1,0.8,0.2L9.6,12.3z"/>
	<path class="st16" d="M10.4,12.1c-0.2,0.1-0.4,0.1-0.7,0.2l0.8,1.5c0.3,0,0.5,0.1,0.8,0.1L10.4,12.1z"/>
	<circle class="st9" cx="8" cy="8" r="1.9"/>
	
		<linearGradient id="SVGID_3_" gradientUnits="userSpaceOnUse" x1="2.5179" y1="8.7545" x2="10.2491" y2="17.2816" gradientTransform="matrix(1 0 0 -1 0 19.3408)">
		<stop  offset="0" style="stop-color:#1499D2"/>
		<stop  offset="1" style="stop-color:#5FCAE3"/>
	</linearGradient>
	<path class="st17" d="M10,2.3C9.7,2.3,9.5,2.4,9.2,2.4L9,3.2l0.6,0.4L10,2.3z"/>
	
		<linearGradient id="SVGID_4_" gradientUnits="userSpaceOnUse" x1="5.4684" y1="5.1114" x2="13.6951" y2="14.185" gradientTransform="matrix(1 0 0 -1 0 19.3408)">
		<stop  offset="0" style="stop-color:#1499D2"/>
		<stop  offset="1" style="stop-color:#5FCAE3"/>
	</linearGradient>
	<path class="st18" d="M6,13.7c0.3-0.1,0.5-0.1,0.8-0.2L7,12.8c-0.2-0.1-0.4-0.2-0.6-0.3L6,13.7z"/>
	<linearGradient id="SVGID_5_" gradientUnits="userSpaceOnUse" x1="2.989" y1="13.4211" x2="12.7452" y2="2.8259">
		<stop  offset="5.707354e-02" style="stop-color:#1499D2"/>
		<stop  offset="0.9472" style="stop-color:#5FCAE3"/>
	</linearGradient>
	<path class="st19" d="M15.7,7.7h-2.8h-1.1l1-0.2L15.1,7c-0.2-0.2-0.4-0.4-0.6-0.6l-2,0.4L11.7,7l0.8-0.3L14.1,6
		c-0.2-0.2-0.4-0.3-0.6-0.5l0,0l0,0l0,0L12.1,6l-0.7,0.3L12,5.9l1.1-0.7L13.6,5c0-0.3,0-0.5,0-0.8l-1.1,0.7l-0.9,0.5l-0.5,0.3
		l0.5-0.4l0.7-0.6l1.3-1.2c0-0.3-0.1-0.6-0.1-0.9l-1.9,1.8L11,4.8l-0.5,0.4L11,4.7l0.3-0.5l1.6-2.2c-0.3,0-0.6,0-0.9,0L10.6,4
		l-0.2,0.3L10,4.8l0.3-0.6l0.1-0.2l0.9-1.8c-0.3,0-0.5,0.1-0.8,0.1L9.7,3.7l0,0L9.4,4.4l0.2-0.8c-0.2,0-0.5-0.1-0.7-0.1L8.7,4.3
		l0.1-0.7c-0.2,0-0.5,0-0.7,0L8,4.2L7.9,3.5c-0.2,0-0.5,0-0.7,0l0.1,0.7L7.1,3.5c-0.2,0-0.5,0.1-0.7,0.1l0.2,0.8L6.3,3.7
		C6,3.7,5.8,3.8,5.6,3.9L6,4.8L5.4,3.9C5.2,4,4.9,4.1,4.7,4.2l0.7,1L4.5,4.3C4.2,4.4,4,4.5,3.8,4.7l1.1,1L3.5,4.8
		C3.3,5,3.1,5.1,2.9,5.2l1.7,1l-2-0.8c0,0-0.4,0.4-0.6,0.5l0,0l0.6,0.2l1.8,0.7L2.6,6.6L1.4,6.4C1.2,6.6,1,6.8,0.8,7l1.9,0.3
		l1.5,0.3H2.8H0.3C0.2,7.8,0.1,7.9,0,8c0.1,0.1,0.2,0.2,0.3,0.4H3h1.2L3.1,8.6L0.9,9c0.2,0.2,0.4,0.4,0.6,0.6l1.9-0.4l1-0.2L3.4,9.4
		L1.9,10c0.2,0.2,0.4,0.3,0.5,0.4l0.1,0.1L3.8,10l0.8-0.3l-0.7,0.4l-1,0.6L2.4,11c0,0.3,0,0.5,0,0.8l1.1-0.7l0.8-0.5L5,10.2
		l-0.6,0.6l-0.6,0.5l-1.3,1.2c0,0.3,0.1,0.6,0.1,0.9l1.9-1.8l0.4-0.4l0.6-0.5L5,11.4l-0.3,0.4l-1.6,2.1c0.3,0,0.6,0,0.9,0l1.4-1.9
		l0.1-0.2L6,11.2L5.6,12l-0.1,0.1l-0.9,1.8c0.3,0,0.5-0.1,0.8-0.1l0.7-1.4l0-0.1l0.4-0.8l-0.2,0.8c0.1,0,0.1,0,0.2,0
		c0.1,0,0.3,0.1,0.5,0.1l0,0l0.2-0.7l-0.1,0.7l0,0c0.2,0,0.4,0,0.7,0l0,0L8,11.8L8,12.5l0,0c0.1,0,0.2,0,0.3,0c0.1,0,0.3,0,0.4,0
		l0,0l-0.1-0.7l0.2,0.7l0,0c0.2,0,0.5-0.1,0.7-0.1l0,0l-0.2-0.8l0.4,0.7l0,0c0.2-0.1,0.5-0.1,0.7-0.2l0,0L10,11.3l0.6,0.8l0,0
		c0.2-0.1,0.5-0.2,0.7-0.3l0,0l-0.7-1l0.9,0.9l0,0c0.2-0.1,0.4-0.2,0.7-0.3l0,0l-1.1-1l1.4,0.9l0,0c0.2-0.1,0.4-0.3,0.6-0.4l0,0
		l-1.6-1l0,0l1.9,0.7c0,0,0.3-0.3,0.3-0.3c0,0,0.1-0.1,0.1-0.1c0,0,0.1-0.1,0.1-0.1l-0.7-0.3l-0.9-0.3L11.7,9l1.2,0.2l0.5,0.1
		l1.2,0.2l0,0c0,0,0,0,0,0c0,0,0.1-0.1,0.1-0.1c0.1-0.1,0.2-0.2,0.2-0.2C15,9.1,15.1,9,15.1,9l-1.1-0.2l-0.9-0.2l-1.4-0.3h1.3h2h0.6
		h0C15.8,8.2,15.9,8.1,16,8C15.9,7.9,15.8,7.8,15.7,7.7z M8,10C6.9,10,6.1,9.1,6.1,8c0-1.1,0.9-1.9,1.9-1.9c1.1,0,1.9,0.9,1.9,1.9
		C9.9,9.1,9.1,10,8,10z"/>
	<path class="st20" d="M9.4,3.6c0.1,0,0.1,0,0.2,0l0-0.1C9.4,3.4,9.2,3.3,9,3.2L8.9,3.5C9.1,3.6,9.3,3.6,9.4,3.6z"/>
</g>
</svg>
